<svg width="303" height="43" viewBox="0 0 303 43" fill="none" xmlns="http://www.w3.org/2000/svg">
<path d="M194.545 18.4753C194.49 17.9574 194.257 17.5542 193.846 17.2656C193.439 16.977 192.909 16.8327 192.256 16.8327C191.798 16.8327 191.405 16.9019 191.076 17.0403C190.748 17.1786 190.497 17.3664 190.323 17.6036C190.149 17.8408 190.06 18.1116 190.056 18.416C190.056 18.669 190.114 18.8884 190.228 19.0742C190.347 19.26 190.507 19.4182 190.709 19.5486C190.91 19.6751 191.134 19.7819 191.379 19.8688C191.624 19.9558 191.871 20.029 192.12 20.0883L193.259 20.3729C193.717 20.4796 194.158 20.6239 194.581 20.8058C195.008 20.9876 195.389 21.2169 195.725 21.4936C196.065 21.7704 196.334 22.1044 196.532 22.4958C196.73 22.8872 196.828 23.3458 196.828 23.8715C196.828 24.5831 196.647 25.2097 196.283 25.7513C195.919 26.289 195.393 26.71 194.706 27.0144C194.022 27.3149 193.193 27.4651 192.221 27.4651C191.276 27.4651 190.456 27.3188 189.76 27.0263C189.068 26.7337 188.527 26.3068 188.135 25.7454C187.748 25.184 187.538 24.5001 187.507 23.6936H189.671C189.703 24.1166 189.833 24.4685 190.062 24.7492C190.292 25.0299 190.59 25.2394 190.958 25.3777C191.329 25.5161 191.745 25.5853 192.203 25.5853C192.681 25.5853 193.101 25.5141 193.46 25.3718C193.824 25.2255 194.109 25.0239 194.314 24.767C194.52 24.506 194.624 24.2016 194.628 23.8538C194.624 23.5375 194.532 23.2766 194.35 23.071C194.168 22.8615 193.913 22.6875 193.585 22.5492C193.261 22.4069 192.881 22.2804 192.446 22.1697L191.065 21.8139C190.064 21.5569 189.274 21.1675 188.693 20.6457C188.115 20.1199 187.827 19.4221 187.827 18.5524C187.827 17.8369 188.021 17.2103 188.408 16.6726C188.799 16.135 189.331 15.7179 190.003 15.4214C190.675 15.121 191.436 14.9707 192.286 14.9707C193.148 14.9707 193.903 15.121 194.551 15.4214C195.204 15.7179 195.716 16.131 196.087 16.6608C196.459 17.1865 196.651 17.7914 196.662 18.4753H194.545ZM204.5 23.4505V18.1729H206.647V27.2812H204.566V25.6624H204.471C204.265 26.1724 203.927 26.5894 203.457 26.9136C202.99 27.2378 202.415 27.3998 201.731 27.3998C201.134 27.3998 200.606 27.2674 200.148 27.0025C199.693 26.7337 199.337 26.3443 199.08 25.8343C198.823 25.3204 198.695 24.6998 198.695 23.9724V18.1729H200.842V23.6403C200.842 24.2175 201 24.676 201.316 25.016C201.632 25.356 202.047 25.526 202.561 25.526C202.877 25.526 203.184 25.4489 203.48 25.2947C203.777 25.1405 204.02 24.9113 204.21 24.6069C204.403 24.2985 204.5 23.9131 204.5 23.4505ZM208.949 27.2812V15.1368H211.096V19.6791H211.185C211.295 19.4577 211.452 19.2225 211.653 18.9734C211.855 18.7204 212.128 18.505 212.472 18.3271C212.816 18.1452 213.254 18.0543 213.788 18.0543C214.492 18.0543 215.126 18.2342 215.692 18.5939C216.261 18.9497 216.711 19.4775 217.044 20.1772C217.38 20.873 217.548 21.7269 217.548 22.7389C217.548 23.7391 217.384 24.5891 217.055 25.2888C216.727 25.9885 216.281 26.5222 215.715 26.8899C215.15 27.2575 214.509 27.4414 213.794 27.4414C213.272 27.4414 212.839 27.3544 212.495 27.1804C212.151 27.0065 211.875 26.797 211.665 26.5519C211.46 26.3028 211.299 26.0676 211.185 25.8462H211.06V27.2812H208.949ZM211.054 22.7271C211.054 23.3161 211.137 23.832 211.303 24.2748C211.473 24.7175 211.716 25.0635 212.033 25.3125C212.353 25.5576 212.74 25.6802 213.195 25.6802C213.669 25.6802 214.067 25.5537 214.387 25.3007C214.707 25.0437 214.948 24.6938 215.11 24.2511C215.276 23.8043 215.359 23.2963 215.359 22.7271C215.359 22.1618 215.278 21.6597 215.116 21.2209C214.954 20.7821 214.713 20.4381 214.393 20.1891C214.073 19.94 213.673 19.8155 213.195 19.8155C212.736 19.8155 212.347 19.9361 212.027 20.1772C211.707 20.4184 211.463 20.7564 211.297 21.1912C211.135 21.6261 211.054 22.138 211.054 22.7271ZM226.571 20.5804L224.615 20.7939C224.559 20.5963 224.462 20.4104 224.324 20.2365C224.19 20.0626 224.008 19.9222 223.778 19.8155C223.549 19.7087 223.268 19.6554 222.936 19.6554C222.49 19.6554 222.114 19.7522 221.81 19.9459C221.509 20.1396 221.361 20.3907 221.365 20.699C221.361 20.9639 221.458 21.1794 221.656 21.3454C221.857 21.5114 222.189 21.6478 222.652 21.7546L224.205 22.0866C225.067 22.2724 225.708 22.567 226.127 22.9702C226.55 23.3734 226.763 23.9012 226.767 24.5535C226.763 25.1267 226.595 25.6327 226.263 26.0715C225.935 26.5064 225.478 26.8464 224.893 27.0915C224.308 27.3366 223.636 27.4591 222.877 27.4591C221.762 27.4591 220.865 27.2259 220.185 26.7594C219.505 26.289 219.1 25.6347 218.969 24.7966L221.063 24.595C221.157 25.0061 221.359 25.3165 221.667 25.526C221.976 25.7355 222.377 25.8403 222.871 25.8403C223.381 25.8403 223.79 25.7355 224.099 25.526C224.411 25.3165 224.567 25.0575 224.567 24.7492C224.567 24.4883 224.466 24.2728 224.265 24.1028C224.067 23.9328 223.759 23.8024 223.34 23.7114L221.786 23.3853C220.912 23.2034 220.266 22.8971 219.847 22.4662C219.428 22.0313 219.22 21.4818 219.224 20.8176C219.22 20.2563 219.373 19.77 219.681 19.3589C219.993 18.9438 220.426 18.6236 220.98 18.3982C221.537 18.1689 222.179 18.0543 222.907 18.0543C223.974 18.0543 224.814 18.2816 225.427 18.7362C226.044 19.1909 226.425 19.8056 226.571 20.5804ZM232.51 27.4591C231.601 27.4591 230.82 27.2595 230.168 26.8602C229.52 26.4609 229.02 25.9095 228.668 25.2058C228.32 24.4981 228.146 23.6838 228.146 22.7627C228.146 21.8376 228.324 21.0212 228.68 20.3136C229.035 19.602 229.537 19.0485 230.186 18.6532C230.838 18.2539 231.609 18.0543 232.498 18.0543C233.238 18.0543 233.892 18.1907 234.461 18.4635C235.034 18.7323 235.491 19.1138 235.831 19.6079C236.171 20.0981 236.365 20.6714 236.412 21.3276H234.36C234.277 20.8888 234.08 20.5231 233.767 20.2306C233.459 19.9341 233.046 19.7858 232.528 19.7858C232.089 19.7858 231.704 19.9044 231.372 20.1416C231.04 20.3749 230.781 20.7109 230.595 21.1497C230.413 21.5885 230.322 22.1143 230.322 22.7271C230.322 23.3477 230.413 23.8814 230.595 24.3281C230.777 24.7709 231.032 25.1129 231.36 25.354C231.692 25.5912 232.081 25.7098 232.528 25.7098C232.844 25.7098 233.127 25.6505 233.376 25.5319C233.629 25.4094 233.841 25.2335 234.011 25.0042C234.181 24.7749 234.297 24.4962 234.36 24.168H236.412C236.361 24.8124 236.171 25.3837 235.843 25.8818C235.515 26.3759 235.068 26.7634 234.503 27.0441C233.937 27.3208 233.273 27.4591 232.51 27.4591ZM238.175 27.2812V18.1729H240.256V19.691H240.351C240.517 19.1652 240.802 18.76 241.205 18.4753C241.612 18.1867 242.077 18.0424 242.599 18.0424C242.717 18.0424 242.85 18.0484 242.996 18.0602C243.146 18.0681 243.271 18.082 243.369 18.1017V20.0764C243.278 20.0448 243.134 20.0171 242.937 19.9934C242.743 19.9657 242.555 19.9519 242.373 19.9519C241.982 19.9519 241.63 20.0369 241.318 20.2069C241.009 20.3729 240.766 20.6042 240.588 20.9007C240.41 21.1972 240.321 21.5391 240.321 21.9265V27.2812H238.175ZM244.796 27.2812V18.1729H246.942V27.2812H244.796ZM245.875 16.8802C245.535 16.8802 245.242 16.7675 244.997 16.5422C244.752 16.3129 244.63 16.0381 244.63 15.7179C244.63 15.3937 244.752 15.119 244.997 14.8936C245.242 14.6644 245.535 14.5497 245.875 14.5497C246.219 14.5497 246.511 14.6644 246.752 14.8936C246.998 15.119 247.12 15.3937 247.12 15.7179C247.12 16.0381 246.998 16.3129 246.752 16.5422C246.511 16.7675 246.219 16.8802 245.875 16.8802ZM249.244 27.2812V15.1368H251.391V19.6791H251.48C251.591 19.4577 251.747 19.2225 251.949 18.9734C252.15 18.7204 252.423 18.505 252.767 18.3271C253.111 18.1452 253.55 18.0543 254.083 18.0543C254.787 18.0543 255.421 18.2342 255.987 18.5939C256.556 18.9497 257.007 19.4775 257.339 20.1772C257.675 20.873 257.843 21.7269 257.843 22.7389C257.843 23.7391 257.679 24.5891 257.351 25.2888C257.023 25.9885 256.576 26.5222 256.011 26.8899C255.445 27.2575 254.805 27.4414 254.089 27.4414C253.567 27.4414 253.135 27.3544 252.791 27.1804C252.447 27.0065 252.17 26.797 251.96 26.5519C251.755 26.3028 251.595 26.0676 251.48 25.8462H251.356V27.2812H249.244ZM251.35 22.7271C251.35 23.3161 251.433 23.832 251.599 24.2748C251.769 24.7175 252.012 25.0635 252.328 25.3125C252.648 25.5576 253.036 25.6802 253.49 25.6802C253.965 25.6802 254.362 25.5537 254.682 25.3007C255.002 25.0437 255.244 24.6938 255.406 24.2511C255.572 23.8043 255.655 23.2963 255.655 22.7271C255.655 22.1618 255.574 21.6597 255.412 21.2209C255.25 20.7821 255.008 20.4381 254.688 20.1891C254.368 19.94 253.969 19.8155 253.49 19.8155C253.032 19.8155 252.642 19.9361 252.322 20.1772C252.002 20.4184 251.759 20.7564 251.593 21.1912C251.431 21.6261 251.35 22.138 251.35 22.7271ZM263.7 27.4591C262.787 27.4591 261.998 27.2694 261.334 26.8899C260.674 26.5064 260.166 25.9648 259.81 25.2651C259.454 24.5614 259.276 23.7332 259.276 22.7804C259.276 21.8435 259.454 21.0212 259.81 20.3136C260.17 19.602 260.672 19.0485 261.316 18.6532C261.961 18.2539 262.718 18.0543 263.587 18.0543C264.149 18.0543 264.679 18.1452 265.177 18.3271C265.679 18.505 266.122 18.7817 266.505 19.1573C266.892 19.5328 267.197 20.0112 267.418 20.5923C267.64 21.1695 267.75 21.8573 267.75 22.6559V23.3141H260.285V21.8672H265.693C265.689 21.4561 265.6 21.0904 265.426 20.7702C265.252 20.446 265.009 20.191 264.696 20.0052C264.388 19.8194 264.028 19.7265 263.617 19.7265C263.178 19.7265 262.793 19.8333 262.461 20.0467C262.129 20.2563 261.87 20.533 261.684 20.8769C261.502 21.2169 261.409 21.5905 261.405 21.9977V23.2608C261.405 23.7905 261.502 24.2451 261.696 24.6246C261.89 25.0002 262.16 25.2888 262.508 25.4904C262.856 25.6881 263.263 25.7869 263.73 25.7869C264.042 25.7869 264.325 25.7434 264.578 25.6565C264.831 25.5655 265.05 25.4331 265.236 25.2591C265.422 25.0852 265.562 24.8697 265.657 24.6128L267.661 24.8381C267.535 25.3679 267.294 25.8304 266.938 26.2257C266.586 26.6171 266.135 26.9215 265.586 27.1389C265.036 27.3524 264.408 27.4591 263.7 27.4591Z" fill="#004DB3"/>
<rect x="103.796" y="0.876439" width="197.497" height="40.4971" rx="20.2486" stroke="#004DB3" stroke-width="1.50288"/>
<rect x="0.537109" y="0.28125" width="166" height="42" rx="21" fill="url(#paint0_linear_4654_47498)"/>
<path fill-rule="evenodd" clip-rule="evenodd" d="M92.6214 26.0238C92.7896 27.6107 94.111 28.2358 94.111 28.2358C94.4669 28.5029 94.3492 28.7082 94.3107 28.7753L94.3107 28.7753C94.3076 28.7807 94.305 28.7852 94.3032 28.7888L90.6753 31.3614C87.552 30.3275 87.2637 27.779 87.2637 27.779V15.5892C87.1676 15.0121 86.8793 15.0842 86.8793 15.0842L84.4767 13.834L84.5007 19.2437H87.0955L84.5248 22.9704L84.5488 27.4424L86.3507 28.6686C86.615 28.9571 86.2306 29.0052 86.2306 29.0052L82.4826 31.3374L76.9086 28.3801C76.4041 28.0675 76.7885 27.8511 76.7885 27.8511L77.9898 27.1058V23.1868H75.3469L75.371 28.2118L76.2359 28.7647C76.5242 29.0533 76.1878 29.2696 76.1878 29.2696L72.4879 31.3614L67.6106 28.8128C67.2022 28.5243 67.6587 28.3079 67.6587 28.3079L69.0282 27.5145V16.2383L66.3613 14.3149L66.2412 14.2668C65.4964 13.8581 66.0249 13.6417 66.0249 13.6417L69.845 11.1893C70.0613 11.021 70.2294 11.2614 70.2294 11.2614L73.7372 13.281C73.7372 13.281 78.4703 10.7565 78.7826 10.5642C78.9988 10.4439 79.167 10.6122 79.167 10.6122L83.1553 12.8242L87.1436 10.3237C87.6001 9.96308 87.7202 10.2035 87.7202 10.2035L92.4052 12.9444C92.7896 13.2089 92.6214 13.281 92.6214 13.281V26.0238ZM74.2177 27.4894C74.2657 27.7779 74.4339 27.6096 74.4339 27.6096L75.0105 27.9943L74.9625 13.881C74.3138 13.881 74.2657 14.3378 74.2657 14.3378L74.2177 27.4894ZM75.323 22.4421L77.5094 19.1963H77.9659V15.5418C77.8457 14.9888 77.6295 15.1571 77.6295 15.1571L75.299 13.9309L75.323 22.4421ZM83.5871 26.7688C83.6832 27.0574 83.9235 26.9852 83.9235 26.9852L84.1878 27.2016V23.1624H83.5871V26.7688ZM83.588 18.8097V19.1703H84.1887L84.1647 13.6164C83.4199 13.4 83.54 13.8568 83.54 13.8568L83.588 18.8097ZM128.228 10.9497C127.507 11.118 122.102 12.8732 122.102 12.8732C122.102 12.8732 121.909 12.9213 122.102 13.2098C122.102 13.2098 122.895 13.4502 123.135 14.1234C123.375 14.7726 123.207 27.3952 123.207 27.3952L122.342 28.2607C122.342 28.2607 122.006 28.4771 122.51 28.8137C122.895 29.0782 127.868 31.2661 127.868 31.2661L130.895 28.8859C130.895 28.8859 131.063 28.5973 130.775 28.4771C130.487 28.3329 129.237 27.4673 129.237 27.4673C129.237 27.4673 128.973 27.6116 128.853 27.0586C128.733 26.5296 128.901 11.118 128.901 11.118C128.901 11.118 128.925 10.7814 128.228 10.9497ZM116.023 15.4925C116.191 15.9012 116.648 15.8291 116.648 15.8291C118.594 15.0356 119.387 13.1603 119.387 13.1603C119.891 11.333 118.714 10.8281 118.714 10.8281C117.705 10.203 116.936 10.7079 116.936 10.7079C115.759 11.357 115.446 12.5832 115.446 12.5832C115.158 14.2182 116.023 15.4925 116.023 15.4925ZM111.698 18.667C111.962 18.2823 115.158 16.3348 115.158 16.3348C115.158 16.3348 115.398 16.0463 115.734 16.3108C116.071 16.6233 120.684 19.0276 120.684 19.0276C120.684 19.0276 121.02 19.244 120.636 19.4844C120.251 19.7249 119.795 19.8451 119.795 19.8451C119.795 19.8451 119.627 19.6768 119.506 20.1817C119.386 20.7347 119.554 27.058 119.554 27.058C119.554 27.058 119.482 27.3225 119.723 27.4427C119.963 27.5629 121.404 28.4044 121.404 28.4044C121.404 28.4044 121.693 28.6689 121.404 28.7891C121.116 28.9334 117.753 31.3377 117.753 31.3377L112.803 28.8372C112.803 28.8372 112.539 28.5487 112.875 28.2602C113.164 28.0197 113.716 27.5869 113.716 27.5869C113.716 27.5869 113.764 27.1301 113.716 26.9618L113.644 20.5423C113.644 20.5423 113.788 20.3259 113.404 20.2057C113.019 20.0615 111.65 19.1959 111.65 19.1959C111.65 19.1959 111.458 19.0517 111.698 18.667ZM112.204 28.164L109.921 26.6253V20.326C109.921 20.326 109.873 20.0375 110.089 19.9894L110.954 19.2922C110.954 19.2922 111.122 19.0517 110.834 18.7151C110.546 18.3785 105.188 15.7097 105.188 15.7097C105.188 15.7097 104.972 15.4212 104.491 15.7578C104.491 15.7578 98.6291 18.1381 96.2986 21.1675C96.2986 21.1675 94.4967 22.3216 94.785 26.9379V26.9379C94.785 26.9379 94.785 26.9619 94.785 27.01C94.785 27.01 94.785 27.01 94.785 27.034V27.034C94.8811 27.6111 95.6018 30.7607 99.9745 31.3137L103.17 28.7411C103.17 28.7411 103.338 28.4526 103.578 28.693L108.984 31.3137L112.276 28.7411C112.3 28.7411 112.468 28.4526 112.204 28.164V28.164ZM102.594 27.9458C102.594 27.9458 100.48 26.8879 99.3748 24.9885C99.0865 24.4114 98.5099 22.9208 98.9183 21.3339C98.9183 21.3339 98.9904 19.5547 101.081 18.6171L103.916 20.5165L103.868 27.7294C103.892 27.7294 103.507 28.3545 102.594 27.9458V27.9458Z" fill="white"/>
<path d="M151.525 18.1591H145.182V11.8666C145.182 11.6867 145.036 11.5391 144.852 11.5391H140.177C139.995 11.5391 139.847 11.6844 139.847 11.8666V18.1591H133.504C133.323 18.1591 133.174 18.3044 133.174 18.4866V23.1253C133.174 23.3052 133.321 23.4528 133.504 23.4528H139.847V29.7454C139.847 29.9253 139.993 30.0729 140.177 30.0729H144.852C145.033 30.0729 145.182 29.9275 145.182 29.7454V23.4528H151.525C151.706 23.4528 151.855 23.3075 151.855 23.1253V18.4866C151.855 18.3067 151.708 18.1591 151.525 18.1591Z" fill="white"/>
<path d="M64.179 17.2266L56.8387 33.8569H55.5083L57.2516 29.9115L51.8152 17.2266H53.2144L58.0085 28.4205L62.8485 17.2266H64.179Z" fill="white"/>
<path d="M50.4122 30.0306H49.0818V13.125H50.4122V30.0306Z" fill="white"/>
<path d="M45.9679 15.7154H44.2476V13.7656H45.9679V15.7154ZM45.8074 30.0289H44.454V17.1605H45.8074V30.0289Z" fill="white"/>
<path d="M41.3604 30.0343H40.1905L40.0988 27.7175C39.5253 29.2773 37.7361 30.1949 35.7175 30.1949C33.1943 30.1949 31.084 28.8186 31.084 25.7907V25.5613C31.084 23.0152 32.9191 21.1342 35.9469 21.1342C37.759 21.1342 39.3189 21.8912 40.0758 23.3363V20.5608C40.0758 19.2303 39.273 17.9458 36.7039 17.9458C35.1441 17.9458 33.5613 18.3816 32.6897 18.8633V17.7393C33.5384 17.2806 35.0294 16.8906 36.8874 16.8906C40.1446 16.8906 41.3604 18.7486 41.3604 20.469V30.0343ZM40.0758 25.7219V25.3778C40.0758 23.7263 38.539 22.1206 36.1534 22.1206C33.9283 22.1206 32.3915 23.4969 32.3915 25.4008V25.7448C32.3915 28.0157 33.9513 29.1856 36.1534 29.1856C38.6307 29.1856 40.0758 27.5799 40.0758 25.7219Z" fill="white"/>
<path d="M29.3345 21.9333C29.3345 27.3468 27.0636 30.0306 22.6365 30.0306H17.5212V13.125H22.3842C26.4901 13.125 29.3345 15.4647 29.3345 21.2452V21.9333ZM27.9353 21.8186V21.3599C27.9353 16.6804 25.9396 14.226 22.3154 14.226H18.8746V28.9525H22.7741C26.169 28.9525 27.9353 26.7733 27.9353 21.8186Z" fill="white"/>
<path fill-rule="evenodd" clip-rule="evenodd" d="M64.1778 17.2317H62.8474L58.0074 28.4256L53.2133 17.2317H51.814L57.2504 29.9166L55.5071 33.862H56.8375L64.1778 17.2317ZM56.9637 29.915L55.1035 34.1249H57.0089L64.5812 16.9688H62.6746L58.0085 27.7604L53.3867 16.9688H51.4153L56.9637 29.915Z" fill="white"/>
<path fill-rule="evenodd" clip-rule="evenodd" d="M50.6746 30.2986H48.8184V12.8672H50.6746V30.2986ZM50.4117 30.0357V13.1301H49.0813V30.0357H50.4117Z" fill="white"/>
<path fill-rule="evenodd" clip-rule="evenodd" d="M45.9674 15.7205V13.7707H44.2471V15.7205H45.9674ZM45.8069 30.034V17.1656H44.4535V30.034H45.8069ZM46.2303 15.9834H43.9841V13.5078H46.2303V15.9834ZM46.0698 30.2969H44.1906V16.9027H46.0698V30.2969Z" fill="white"/>
<path fill-rule="evenodd" clip-rule="evenodd" d="M40.19 30.0394H41.3599V20.4741C41.3599 18.7537 40.1441 16.8957 36.8869 16.8957C35.0289 16.8957 33.5379 17.2857 32.6892 17.7445V18.8684C32.7708 18.8233 32.8586 18.7786 32.9521 18.7347C33.857 18.3089 35.2896 17.9509 36.7034 17.9509C39.2725 17.9509 40.0753 19.2354 40.0753 20.5659V23.3414C39.9962 23.1904 39.9084 23.047 39.8124 22.9111C38.9897 21.7464 37.5692 21.1393 35.9464 21.1393C32.9185 21.1393 31.0835 23.0203 31.0835 25.5664V25.7958C31.0835 28.8237 33.1938 30.2 35.717 30.2C37.5048 30.2 39.1126 29.4803 39.8553 28.2321C39.9512 28.071 40.0327 27.901 40.0982 27.7226L40.19 30.0394ZM39.873 28.6779L39.9373 30.3023H41.6228V20.4741C41.6228 19.5527 41.2966 18.5857 40.5265 17.8497C39.7553 17.1127 38.5659 16.6328 36.8869 16.6328C34.9981 16.6328 33.4612 17.0283 32.5641 17.5132L32.4262 17.5877V19.3141L32.8163 19.0985C33.6444 18.6409 35.1824 18.2138 36.7034 18.2138C37.9468 18.2138 38.716 18.5245 39.1733 18.9516C39.6286 19.3769 39.8124 19.953 39.8124 20.5659V22.4815C38.9112 21.416 37.5028 20.8764 35.9464 20.8764C34.3775 20.8764 33.0934 21.3646 32.1992 22.2067C31.3043 23.0495 30.8206 24.228 30.8206 25.5664V25.7958C30.8206 27.3758 31.374 28.5539 32.2829 29.333C33.1857 30.1067 34.4107 30.4629 35.717 30.4629C37.413 30.4629 39.004 29.8333 39.873 28.6779ZM40.0753 25.3829V25.727C40.0753 27.585 38.6302 29.1907 36.1529 29.1907C33.9508 29.1907 32.391 28.0208 32.391 25.7499V25.4059C32.391 23.502 33.9278 22.1257 36.1529 22.1257C38.5384 22.1257 40.0753 23.7314 40.0753 25.3829ZM39.8124 25.727V25.3829C39.8124 23.9043 38.4227 22.3886 36.1529 22.3886C34.0401 22.3886 32.6539 23.6781 32.6539 25.4059V25.7499C32.6539 26.821 33.0191 27.6041 33.6183 28.1232C34.2228 28.647 35.0956 28.9278 36.1529 28.9278C38.4993 28.9278 39.8124 27.4258 39.8124 25.727Z" fill="white"/>
<path fill-rule="evenodd" clip-rule="evenodd" d="M17.2578 30.2986V12.8672H22.3837C24.486 12.8672 26.3024 13.4673 27.5905 14.8428C28.876 16.2157 29.5969 18.3203 29.5969 21.2503V21.9384C29.5969 24.6756 29.0237 26.7711 27.8473 28.1852C26.6632 29.6086 24.9047 30.2986 22.636 30.2986H17.2578ZM27.6718 21.8237V21.365C27.6718 19.0571 27.1789 17.341 26.278 16.2068C25.3851 15.0826 24.0627 14.4941 22.3148 14.4941H19.137V28.6947H22.7736C24.4097 28.6947 25.6117 28.1735 26.4163 27.0917C27.2327 25.9942 27.6718 24.2784 27.6718 21.8237ZM18.8741 28.9576V14.2311H22.3148C25.9391 14.2311 27.9347 16.6856 27.9347 21.365V21.8237C27.9347 26.7784 26.1685 28.9576 22.7736 28.9576H18.8741ZM22.636 30.0357C27.0631 30.0357 29.334 27.3519 29.334 21.9384V21.2503C29.334 15.4698 26.4896 13.1301 22.3837 13.1301H17.5207V30.0357H22.636Z" fill="white"/>
<defs>
<linearGradient id="paint0_linear_4654_47498" x1="25.2536" y1="-6.41515" x2="68.2289" y2="83.9511" gradientUnits="userSpaceOnUse">
<stop stop-color="#1E3264"/>
<stop offset="0.66" stop-color="#004DB3"/>
</linearGradient>
</defs>
</svg>
